<?xml version="1.0" encoding="UTF-8" standalone="no"?>
<!-- Created with Inkscape (http://www.inkscape.org/) -->

<svg
   width="800"
   height="800"
   viewBox="0 0 211.66666 211.66667"
   version="1.1"
   id="svg16080"
   inkscape:version="1.2.1 (9c6d41e410, 2022-07-14)"
   sodipodi:docname="PortCall-Logo.svg"
   xmlns:inkscape="http://www.inkscape.org/namespaces/inkscape"
   xmlns:sodipodi="http://sodipodi.sourceforge.net/DTD/sodipodi-0.dtd"
   xmlns="http://www.w3.org/2000/svg"
   xmlns:svg="http://www.w3.org/2000/svg">
  <sodipodi:namedview
     id="namedview16082"
     pagecolor="#ffffff"
     bordercolor="#000000"
     borderopacity="0.25"
     inkscape:showpageshadow="2"
     inkscape:pageopacity="0.0"
     inkscape:pagecheckerboard="0"
     inkscape:deskcolor="#d1d1d1"
     inkscape:document-units="mm"
     showgrid="true"
     inkscape:zoom="0.84096521"
     inkscape:cx="354.94929"
     inkscape:cy="702.16936"
     inkscape:window-width="2560"
     inkscape:window-height="1494"
     inkscape:window-x="2869"
     inkscape:window-y="163"
     inkscape:window-maximized="1"
     inkscape:current-layer="layer1">
    <inkscape:grid
       type="xygrid"
       id="grid16447"
       empspacing="20" />
  </sodipodi:namedview>
  <defs
     id="defs16077">
    <inkscape:path-effect
       effect="mirror_symmetry"
       start_point="179.86622,92.212778"
       end_point="179.86622,104.61603"
       center_point="179.86622,98.414404"
       id="path-effect18655"
       is_visible="true"
       lpeversion="1.2"
       lpesatellites=""
       mode="free"
       discard_orig_path="false"
       fuse_paths="true"
       oposite_fuse="false"
       split_items="false"
       split_open="false"
       link_styles="false" />
    <inkscape:path-effect
       effect="mirror_symmetry"
       start_point="79.643892,79.198956"
       end_point="79.643892,132.15256"
       center_point="79.643892,105.67576"
       id="path-effect18035"
       is_visible="true"
       lpeversion="1.2"
       lpesatellites=""
       mode="free"
       discard_orig_path="false"
       fuse_paths="true"
       oposite_fuse="false"
       split_items="false"
       split_open="false"
       link_styles="false" />
  </defs>
  <g
     inkscape:label="Layer 1"
     inkscape:groupmode="layer"
     id="layer1">
    <path
       style="color:#000000;fill:#ffffff;stroke-width:1.28388;-inkscape-stroke:none"
       d="m 73.512336,126.14222 c 0,0 -23.555862,0.21821 -35.332811,0.43591 -11.776948,0.2177 -13.584122,15.16797 -8.135743,19.5922 l 32.974703,26.77646 c 6.635706,5.38835 10.493851,5.00727 10.493851,5.00727 0,0 3.855657,0.38108 10.491363,-5.00727 L 116.9789,146.17033 c 5.44838,-4.42423 3.64071,-19.3745 -8.13625,-19.5922 -11.776925,-0.2177 -35.330314,-0.43591 -35.330314,-0.43591 z"
       id="path18040" />
    <path
       id="path18261"
       style="color:#000000;fill:#000000;stroke-width:0.970495;-inkscape-stroke:none"
       d="m 73.506362,125.49437 c 0,0 -23.55319,0.21959 -35.337785,0.43744 -6.152708,0.11373 -9.824579,4.15826 -11.127023,8.68308 -1.302445,4.52478 -0.418925,9.60581 2.605308,12.06156 l 32.975201,26.77645 c 3.37057,2.73697 6.062916,4.03043 7.938778,4.6351 1.837338,0.59225 2.905929,0.50409 2.951489,0.50062 0.04556,0.004 1.112791,0.0917 2.949499,-0.50062 1.875242,-0.60468 4.568236,-1.89815 7.938779,-4.6351 l 32.974702,-26.77645 c 3.02422,-2.45576 3.90835,-7.53679 2.60581,-12.06156 -1.30259,-4.52481 -4.97434,-8.56935 -11.12704,-8.68308 -11.784575,-0.21785 -35.336279,-0.43744 -35.336279,-0.43744 h -0.0055 z m 0.213377,1.2976 c 0.368575,0.004 23.435686,0.21805 35.111471,0.43387 5.62419,0.10397 8.74442,3.64135 9.92782,7.75213 0.70979,2.46567 0.65214,5.10637 -0.0269,7.25302 L 73.719739,129.96967 Z m -1.272313,0.009 v 3.18481 l -44.21911,12.04618 c -0.620492,-2.10963 -0.653037,-4.66411 0.03482,-7.05378 1.183276,-4.11078 4.303631,-7.64816 9.927825,-7.75213 11.295349,-0.20879 32.491709,-0.40825 34.256467,-0.42478 z m 1.272313,4.50767 44.536441,12.13288 c -0.4324,0.90195 -0.99215,1.67013 -1.6742,2.22399 l -32.974704,26.77443 c -3.265137,2.65135 -5.819423,3.86122 -7.530921,4.4131 -1.296352,0.418 -2.060295,0.46508 -2.356616,0.46321 z m -1.272313,0.0167 v 45.90696 c -0.384893,-0.0653 -0.88052,-0.17921 -1.50111,-0.37925 -1.712125,-0.55189 -4.265813,-1.76178 -7.530922,-4.4131 L 30.440192,145.66553 c -0.730375,-0.59309 -1.32278,-1.42909 -1.76572,-2.41566 z" />
    <path
       style="fill:#ffffff;stroke:#000000;stroke-width:1.97262;stroke-opacity:1"
       d="m 72.300902,36.801315 1.201273,87.492885 c 0,0 23.45644,-4.49585 30.959735,-12.3659 C 109.70006,105.12702 92.070585,86.348482 86.690881,79.061395 85.275168,76.24372 89.448732,65.070187 81.840663,53.11581 Z"
       id="path18050"
       sodipodi:nodetypes="cccccc" />
    <path
       style="fill:#ffffff;stroke:#ffffff;stroke-width:1.37767;stroke-opacity:1"
       d="m 72.506276,67.556585 c -0.05958,0.08994 7.559831,17.948466 13.641329,10.624832"
       id="path18160"
       sodipodi:nodetypes="cc" />
    <path
       style="fill:#ffffff;stroke:#000000;stroke-width:1.73604;stroke-opacity:1"
       id="path18220"
       sodipodi:type="arc"
       sodipodi:cx="61.725452"
       sodipodi:cy="149.74745"
       sodipodi:rx="5.5073681"
       sodipodi:ry="5.5856714"
       sodipodi:start="0"
       sodipodi:end="5.4492291"
       sodipodi:arc-type="slice"
       d="m 67.232821,149.74745 a 5.5073681,5.5856714 0 0 1 -4.367443,5.46471 5.5073681,5.5856714 0 0 1 -6.175406,-3.20252 5.5073681,5.5856714 0 0 1 1.811048,-6.79043 5.5073681,5.5856714 0 0 1 6.925114,0.39152 l -3.700682,4.13672 z" />
    <path
       style="fill:#ffffff;stroke:#000000;stroke-width:1.73604;stroke-opacity:1"
       id="path18222"
       sodipodi:type="arc"
       sodipodi:cx="-84.676483"
       sodipodi:cy="149.74736"
       sodipodi:rx="5.5073681"
       sodipodi:ry="5.5856714"
       sodipodi:start="0"
       sodipodi:end="5.4492291"
       sodipodi:arc-type="slice"
       d="m -79.169115,149.74736 a 5.5073681,5.5856714 0 0 1 -4.367443,5.46471 5.5073681,5.5856714 0 0 1 -6.175405,-3.20252 5.5073681,5.5856714 0 0 1 1.811048,-6.79044 5.5073681,5.5856714 0 0 1 6.925114,0.39153 l -3.700682,4.13672 z"
       transform="scale(-1,1)" />
    <path
       style="fill:#000000;fill-opacity:1;stroke:#000000;stroke-width:0.539763;stroke-opacity:1"
       d="m 28.173578,141.51923 c -0.443146,-1.71029 -0.433444,-4.24393 0.02307,-6.02398 0.936627,-3.65215 3.200628,-6.37398 6.239801,-7.50163 1.728096,-0.6412 1.965581,-0.66349 8.231927,-0.77219 8.082401,-0.14022 23.333554,-0.32528 26.805903,-0.32528 h 2.904154 v 1.51655 c 0,1.34962 -0.02063,1.52295 -0.187359,1.57472 -0.212635,0.066 -3.450307,0.94857 -26.739053,7.28892 -9.127144,2.48486 -16.724243,4.55016 -16.882439,4.58954 -0.263394,0.0655 -0.296762,0.0364 -0.396002,-0.34665 z"
       id="path18412" />
    <path
       style="fill:#000000;fill-opacity:1;stroke:#000000;stroke-width:0.539763;stroke-opacity:1"
       d="m 96.788865,136.20117 c -11.92418,-3.25343 -21.981435,-5.99771 -22.349464,-6.09838 l -0.669148,-0.18303 v -1.52969 -1.5297 l 7.895918,0.071 c 15.118364,0.13591 26.213129,0.29725 27.649079,0.40209 0.79495,0.058 1.83079,0.20802 2.30186,0.33333 3.69224,0.98211 6.27614,3.87805 7.30753,8.19002 0.27262,1.1397 0.26553,4.38801 -0.012,5.4891 -0.10939,0.43403 -0.25393,0.78498 -0.32119,0.77989 -0.0673,-0.005 -9.87844,-2.67117 -21.802595,-5.92462 z"
       id="path18414" />
    <path
       style="fill:#000000;fill-opacity:1;stroke:#ffffff;stroke-width:0.539763;stroke-opacity:1"
       d="m 74.514159,122.29726 c -0.0031,-0.37416 -0.169305,-11.92171 -0.36946,-25.661221 l -0.363922,-24.98092 -0.9153,-1.849661 c -0.593833,-1.200038 -0.9153,-1.975198 -0.9153,-2.207091 V 67.24094 l 0.561822,0.384662 c 0.309001,0.211566 0.577997,0.335322 0.597769,0.275014 0.0538,-0.164102 0.232231,-0.132163 0.232231,0.04157 0,0.08316 0.09476,0.266852 0.210565,0.408184 l 0.210567,0.256971 -0.004,-0.979645 c -0.0023,-0.538804 -0.08797,-6.784033 -0.190606,-13.878288 -0.102636,-7.094256 -0.177891,-12.912558 -0.167234,-12.929564 0.01064,-0.01701 1.143363,1.8933 2.517122,4.245122 1.373762,2.351825 3.274378,5.598564 4.223594,7.214977 2.12493,3.618526 2.476651,4.27116 3.079733,5.714589 1.006293,2.408477 1.716325,5.071233 2.075288,7.782727 0.215108,1.624844 0.259203,5.7701 0.102068,9.595646 l -0.09458,2.302742 0.308711,0.163862 c 0.16979,0.09012 0.450593,0.315587 0.624005,0.501022 l 0.315297,0.337158 -0.410186,0.427075 -0.410187,0.427077 0.733462,0.959858 c 0.403404,0.527926 1.504566,1.915017 2.447028,3.082426 3.059029,3.789168 4.478879,5.572703 5.889449,7.398054 6.179005,7.995934 9.303445,13.696101 9.554925,17.431851 0.0921,1.36823 -0.20318,2.31167 -0.96448,3.08146 -3.820915,3.86351 -13.746171,7.98914 -26.330856,10.94497 -1.281164,0.30091 -2.377226,0.54711 -2.435689,0.54711 -0.05846,0 -0.108788,-0.30614 -0.111834,-0.68031 z"
       id="path18568" />
    <path
       id="rect18586"
       style="stroke-width:1.28388"
       d="m 124.3417,130.84299 v 10.31393 h 10e-4 v 30.94125 h 4.39091 v -30.94125 h 56.47472 v -10.31393 z" />
    <path
       id="path18593"
       style="stroke-width:0.97629"
       d="m 143.28116,114.86807 a 1.9539044,1.9864999 0 0 0 -1.95374,1.98683 1.9539044,1.9864999 0 0 0 1.20518,1.8341 l -0.45511,-0.0116 c -2.82709,-0.0706 -2.46305,6.15036 -2.89131,8.10965 -0.42825,1.95928 1.81993,4.02676 1.81993,4.02676 -0.0535,-4.29955 2.30291,-3.97165 2.30291,-3.97165 0,0 2.35443,-0.3279 2.3009,3.97165 0,0 2.24769,-2.06748 1.81943,-4.02676 -0.42825,-1.95929 -0.0642,-8.18033 -2.8913,-8.10965 l -0.51181,0.0126 a 1.9539044,1.9864999 0 0 0 1.20866,-1.83511 1.9539044,1.9864999 0 0 0 -1.95374,-1.98683 z" />
  </g>
</svg>
